<?xml version="1.0" encoding="UTF-8" standalone="no"?>
<!DOCTYPE svg PUBLIC "-//W3C//DTD SVG 1.1//EN"
 "http://www.w3.org/Graphics/SVG/1.1/DTD/svg11.dtd">
<!-- Generated by graphviz version 2.40.1 (20161225.0304)
 -->
<!-- Title: dependencies Pages: 1 -->
<svg width="566pt" height="290pt"
 viewBox="0.00 0.00 566.00 290.00" xmlns="http://www.w3.org/2000/svg" xmlns:xlink="http://www.w3.org/1999/xlink">
<g id="graph0" class="graph" transform="scale(1 1) rotate(0) translate(4 286)">
<title>dependencies</title>
<polygon fill="#ffffff" stroke="transparent" points="-4,4 -4,-286 562,-286 562,4 -4,4"/>
<text text-anchor="start" x="258.0091" y="-42.4" font-family="sans-serif" font-weight="bold" font-size="14.00" fill="#000000">Legend</text>
<polygon fill="#ffffb3" stroke="transparent" points="45,-10 45,-30 65,-30 65,-10 45,-10"/>
<text text-anchor="start" x="68.629" y="-15.4" font-family="sans-serif" font-size="14.00" fill="#000000"> &#160;Declarations</text>
<polygon fill="#8dd3c7" stroke="transparent" points="158,-10 158,-30 178,-30 178,-10 158,-10"/>
<text text-anchor="start" x="181.7251" y="-15.4" font-family="sans-serif" font-size="14.00" fill="#000000"> &#160;Module</text>
<polygon fill="#80b1d3" stroke="transparent" points="244,-10 244,-30 264,-30 264,-10 244,-10"/>
<text text-anchor="start" x="267.7812" y="-15.4" font-family="sans-serif" font-size="14.00" fill="#000000"> &#160;Bootstrap</text>
<polygon fill="#fdb462" stroke="transparent" points="341,-10 341,-30 361,-30 361,-10 341,-10"/>
<text text-anchor="start" x="364.6732" y="-15.4" font-family="sans-serif" font-size="14.00" fill="#000000"> &#160;Providers</text>
<polygon fill="#fb8072" stroke="transparent" points="437,-10 437,-30 457,-30 457,-10 437,-10"/>
<text text-anchor="start" x="460.7258" y="-15.4" font-family="sans-serif" font-size="14.00" fill="#000000"> &#160;Exports</text>
<g id="clust1" class="cluster">
<title>cluster_AppModule</title>
<polygon fill="none" stroke="#000000" stroke-dasharray="1,5" points="8,-70 8,-274 286,-274 286,-70 8,-70"/>
</g>
<g id="clust2" class="cluster">
<title>cluster_AppModule_declarations</title>
<polygon fill="none" stroke="#000000" points="16,-78 16,-130 138,-130 138,-78 16,-78"/>
</g>
<g id="clust4" class="cluster">
<title>cluster_AppModule_imports</title>
<polygon fill="none" stroke="#000000" points="146,-78 146,-130 278,-130 278,-78 146,-78"/>
</g>
<g id="clust6" class="cluster">
<title>cluster_AppModule_bootstrap</title>
<polygon fill="none" stroke="#000000" points="83,-214 83,-266 207,-266 207,-214 83,-214"/>
</g>
<g id="clust8" class="cluster">
<title>cluster_ClipboardModule</title>
<polygon fill="none" stroke="#000000" stroke-dasharray="1,5" points="294,-138 294,-206 550,-206 550,-138 294,-138"/>
</g>
<g id="clust9" class="cluster">
<title>cluster_ClipboardModule_declarations</title>
<polygon fill="none" stroke="#000000" points="428,-146 428,-198 542,-198 542,-146 428,-146"/>
</g>
<g id="clust12" class="cluster">
<title>cluster_ClipboardModule_exports</title>
<polygon fill="none" stroke="#000000" points="302,-146 302,-198 420,-198 420,-146 302,-146"/>
</g>
<!-- AppComponent -->
<g id="node1" class="node">
<title>AppComponent</title>
<polygon fill="#ffffb3" stroke="#000000" points="129.9399,-122 24.0601,-122 24.0601,-86 129.9399,-86 129.9399,-122"/>
<text text-anchor="middle" x="77" y="-99.8" font-family="Times,serif" font-size="14.00" fill="#000000">AppComponent</text>
</g>
<!-- AppModule -->
<g id="node2" class="node">
<title>AppModule</title>
<polygon fill="#8dd3c7" stroke="#000000" points="186.6571,-190 183.6571,-194 162.6571,-194 159.6571,-190 103.3429,-190 103.3429,-154 186.6571,-154 186.6571,-190"/>
<text text-anchor="middle" x="145" y="-167.8" font-family="Times,serif" font-size="14.00" fill="#000000">AppModule</text>
</g>
<!-- AppComponent&#45;&gt;AppModule -->
<g id="edge1" class="edge">
<title>AppComponent&#45;&gt;AppModule</title>
<path fill="none" stroke="#000000" d="M116.4457,-122.2228C116.4457,-122.2228 116.4457,-143.7269 116.4457,-143.7269"/>
<polygon fill="#000000" stroke="#000000" points="112.9457,-143.7269 116.4457,-153.7269 119.9457,-143.727 112.9457,-143.7269"/>
</g>
<!-- AppComponent  -->
<g id="node4" class="node">
<title>AppComponent </title>
<polygon fill="#80b1d3" stroke="#000000" points="199.439,-258 90.561,-258 90.561,-222 199.439,-222 199.439,-258"/>
<text text-anchor="middle" x="145" y="-235.8" font-family="Times,serif" font-size="14.00" fill="#000000">AppComponent </text>
</g>
<!-- AppModule&#45;&gt;AppComponent  -->
<g id="edge3" class="edge">
<title>AppModule&#45;&gt;AppComponent </title>
<path fill="none" stroke="#000000" stroke-dasharray="1,5" d="M145,-190.2228C145,-190.2228 145,-211.7269 145,-211.7269"/>
<polygon fill="#000000" stroke="#000000" points="141.5001,-211.7269 145,-221.7269 148.5001,-211.727 141.5001,-211.7269"/>
</g>
<!-- ClipboardModule -->
<g id="node3" class="node">
<title>ClipboardModule</title>
<polygon fill="#8dd3c7" stroke="#000000" points="269.5437,-122 266.5437,-126 245.5437,-126 242.5437,-122 154.4563,-122 154.4563,-86 269.5437,-86 269.5437,-122"/>
<text text-anchor="middle" x="212" y="-99.8" font-family="Times,serif" font-size="14.00" fill="#000000">ClipboardModule</text>
</g>
<!-- ClipboardModule&#45;&gt;AppModule -->
<g id="edge2" class="edge">
<title>ClipboardModule&#45;&gt;AppModule</title>
<path fill="none" stroke="#000000" d="M170.5284,-122.2228C170.5284,-122.2228 170.5284,-143.7269 170.5284,-143.7269"/>
<polygon fill="#000000" stroke="#000000" points="167.0285,-143.7269 170.5284,-153.7269 174.0285,-143.727 167.0285,-143.7269"/>
</g>
<!-- CopyDirective  -->
<g id="node6" class="node">
<title>CopyDirective </title>
<polygon fill="#fb8072" stroke="#000000" points="411.9194,-190 310.0806,-190 310.0806,-154 411.9194,-154 411.9194,-190"/>
<text text-anchor="middle" x="361" y="-167.8" font-family="Times,serif" font-size="14.00" fill="#000000">CopyDirective </text>
</g>
<!-- ClipboardModule&#45;&gt;CopyDirective  -->
<g id="edge5" class="edge">
<title>ClipboardModule&#45;&gt;CopyDirective </title>
<path fill="none" stroke="#000000" stroke-dasharray="5,2" d="M234.6205,-122.2228C234.6205,-142.3652 234.6205,-172 234.6205,-172 234.6205,-172 299.9609,-172 299.9609,-172"/>
<polygon fill="#000000" stroke="#000000" points="299.9609,-175.5001 309.9609,-172 299.9608,-168.5001 299.9609,-175.5001"/>
</g>
<!-- CopyDirective -->
<g id="node5" class="node">
<title>CopyDirective</title>
<polygon fill="#ffffb3" stroke="#000000" points="534.4203,-190 435.5797,-190 435.5797,-154 534.4203,-154 534.4203,-190"/>
<text text-anchor="middle" x="485" y="-167.8" font-family="Times,serif" font-size="14.00" fill="#000000">CopyDirective</text>
</g>
<!-- CopyDirective&#45;&gt;ClipboardModule -->
<g id="edge4" class="edge">
<title>CopyDirective&#45;&gt;ClipboardModule</title>
<path fill="none" stroke="#000000" d="M485,-153.7772C485,-133.6348 485,-104 485,-104 485,-104 279.5627,-104 279.5627,-104"/>
<polygon fill="#000000" stroke="#000000" points="279.5627,-100.5001 269.5627,-104 279.5627,-107.5001 279.5627,-100.5001"/>
</g>
</g>
</svg>
